<svg width="186" height="258" viewBox="0 0 186 258" fill="none" xmlns="http://www.w3.org/2000/svg">
<path d="M1 257.162V217.819H24.2837L24.0151 223.593H8.22412V234.765H23.2363V240.485H8.22412V257.162H1Z" fill="#6E64AC"/>
<path d="M30.0039 257.162V227.648H35.9121L36.8252 232.16C38.7588 229.063 41.5607 227.514 45.231 227.514C46.0008 227.514 46.6274 227.55 47.1108 227.621L47.0034 233.503C46.2873 233.395 45.5443 233.341 44.7744 233.341C42.1784 233.341 40.2358 234.031 38.9468 235.409C37.6756 236.788 37.04 238.704 37.04 241.156V257.162H30.0039Z" fill="#6E64AC"/>
<path d="M51.5688 257.162V227.648H58.605V257.162H51.5688ZM51.5688 223.351V217.336H58.6318V223.351H51.5688Z" fill="#6E64AC"/>
<path d="M79.606 257.726C74.8615 257.726 71.1644 256.366 68.5146 253.644C65.8828 250.905 64.5669 247.127 64.5669 242.311C64.5669 237.62 65.8112 233.888 68.2998 231.112C70.7884 228.337 74.1812 226.941 78.478 226.923C82.5422 226.923 85.6932 228.194 87.9312 230.737C90.187 233.279 91.3149 236.654 91.3149 240.861C91.3149 241.165 91.306 241.658 91.2881 242.338C91.2881 243.018 91.2881 243.52 91.2881 243.842H71.6567C71.7284 246.599 72.4803 248.739 73.9126 250.26C75.3628 251.764 77.3501 252.516 79.8745 252.516C83.0972 252.516 86.1945 251.675 89.1665 249.992L90.1602 254.987C87.2061 256.813 83.688 257.726 79.606 257.726ZM71.791 239.411H84.6816C84.6816 237.012 84.1356 235.168 83.0435 233.879C81.9513 232.59 80.4385 231.945 78.5049 231.945C76.6966 231.945 75.1659 232.572 73.9126 233.825C72.6772 235.078 71.9701 236.94 71.791 239.411Z" fill="#6E64AC"/>
<path d="M97.062 257.162V227.648H102.729L103.507 231.381C106.515 228.409 109.854 226.923 113.524 226.923C116.962 226.923 119.531 227.917 121.232 229.904C122.951 231.873 123.81 234.738 123.81 238.498V257.162H116.747V239.357C116.729 236.976 116.344 235.195 115.592 234.013C114.84 232.831 113.489 232.24 111.537 232.24C110.015 232.24 108.619 232.634 107.348 233.422C106.094 234.192 105.181 235.168 104.608 236.349C104.268 237.746 104.098 239.894 104.098 242.795V257.162H97.062Z" fill="#6E64AC"/>
<path d="M141.723 257.726C137.873 257.726 134.848 256.312 132.646 253.483C130.443 250.654 129.342 246.877 129.342 242.15C129.342 237.567 130.434 233.888 132.619 231.112C134.821 228.32 137.847 226.923 141.696 226.923C145.885 226.923 148.848 228.409 150.585 231.381C150.406 229.626 150.316 227.935 150.316 226.305V216.772L157.353 216.315V257.162H151.256L150.478 253.134C150.173 253.617 149.887 254.038 149.618 254.396C149.368 254.736 148.992 255.139 148.49 255.605C147.989 256.052 147.443 256.419 146.852 256.706C146.279 256.974 145.545 257.207 144.65 257.404C143.773 257.619 142.797 257.726 141.723 257.726ZM143.388 252.382C148.114 252.382 150.513 249.168 150.585 242.741C150.585 239.106 149.976 236.457 148.759 234.792C147.541 233.127 145.724 232.294 143.307 232.294C141.195 232.294 139.503 233.145 138.231 234.845C136.978 236.528 136.352 239.017 136.352 242.311C136.352 245.588 136.978 248.085 138.231 249.804C139.503 251.523 141.221 252.382 143.388 252.382Z" fill="#6E64AC"/>
<path d="M174.003 257.699C169.652 257.699 166.17 256.956 163.556 255.47L164.281 250.18C165.463 250.824 166.967 251.406 168.793 251.925C170.619 252.427 172.284 252.677 173.788 252.677C175.346 252.677 176.554 252.391 177.414 251.818C178.291 251.227 178.738 250.368 178.756 249.24C178.756 248.219 178.345 247.414 177.521 246.823C176.715 246.232 175.167 245.498 172.875 244.621C172.087 244.334 171.577 244.146 171.344 244.057C168.623 243.001 166.662 241.828 165.463 240.539C164.263 239.232 163.664 237.468 163.664 235.248C163.664 232.563 164.63 230.504 166.564 229.071C168.515 227.639 171.228 226.923 174.701 226.923C178.461 226.923 181.764 227.63 184.611 229.045L182.865 233.905C180.054 232.598 177.378 231.945 174.835 231.945C173.421 231.945 172.311 232.187 171.505 232.67C170.718 233.136 170.324 233.852 170.324 234.819C170.324 235.732 170.709 236.448 171.479 236.967C172.248 237.468 173.752 238.131 175.99 238.954C176.062 238.972 176.295 239.053 176.688 239.196C177.082 239.339 177.387 239.456 177.602 239.545C180.305 240.53 182.292 241.711 183.563 243.09C184.835 244.451 185.47 246.232 185.47 248.434C185.452 251.388 184.45 253.671 182.462 255.282C180.475 256.894 177.655 257.699 174.003 257.699Z" fill="#6E64AC"/>
<path fill-rule="evenodd" clip-rule="evenodd" d="M134.11 14.5145C129.599 19.7405 130.179 27.6337 135.405 32.1445C140.631 36.6553 148.524 36.0755 153.035 30.8495C157.546 25.6235 156.966 17.7303 151.74 13.2195C146.514 8.70872 138.621 9.28851 134.11 14.5145ZM128.871 39.7145C119.464 31.5951 118.421 17.3873 126.54 7.98051C134.66 -1.42628 148.867 -2.46991 158.274 5.64951C167.681 13.7689 168.725 27.9767 160.605 37.3835C152.486 46.7903 138.278 47.8339 128.871 39.7145ZM81.0973 15.7623C67.014 15.7623 55.5973 27.1791 55.5973 41.2623C55.5973 55.3456 67.014 66.7623 81.0973 66.7623C95.1805 66.7623 106.597 55.3456 106.597 41.2623C106.597 27.1791 95.1805 15.7623 81.0973 15.7623ZM45.5973 41.2623C45.5973 21.6562 61.4912 5.76231 81.0973 5.76231C100.703 5.76231 116.597 21.6562 116.597 41.2623C116.597 60.8684 100.703 76.7623 81.0973 76.7623C61.4912 76.7623 45.5973 60.8684 45.5973 41.2623ZM81.1973 85.9623C88.7687 85.9623 95.9889 87.4868 102.567 90.2452C106.291 71.1354 123.079 56.7623 143.297 56.7623C166.259 56.7623 184.797 75.3009 184.797 98.2623V118.962H131.87C134.909 125.814 136.597 133.394 136.597 141.362V163.962H89.3962C86.2011 167.666 82.6891 171.114 79.1965 174.222C72.9561 179.776 66.597 184.406 61.817 187.638C59.4212 189.259 57.4078 190.538 55.9855 191.416C55.2741 191.855 54.7096 192.195 54.3181 192.428C54.1223 192.544 53.9697 192.634 53.8635 192.696L53.7882 192.74L53.7394 192.768L53.7042 192.788L53.6897 192.797C53.6897 192.797 53.6872 192.798 51.1973 188.462C48.7138 192.802 48.7113 192.8 48.7113 192.8L48.7076 192.798L48.6968 192.792L48.6616 192.772C48.632 192.755 48.5905 192.731 48.5374 192.7C48.4311 192.638 48.2784 192.549 48.0826 192.433C47.6909 192.201 47.1263 191.862 46.4147 191.424C44.9922 190.548 42.9785 189.272 40.5823 187.656C35.8017 184.431 29.4417 179.81 23.2002 174.262C16.9884 168.739 10.7152 162.141 6.2719 154.931C1.84179 147.742 -1.05657 139.464 0.363893 130.849L0.364101 130.848C2.5515 117.602 12.7851 109.181 24.2293 107.609C28.3063 107.049 32.5119 107.353 36.5652 108.566C46.6489 94.8755 62.8924 85.9623 81.1973 85.9623ZM45.6766 113.113C47.6396 114.549 49.4944 116.26 51.1973 118.251C58.5355 109.669 68.697 106.308 78.1653 107.609C89.6095 109.181 99.8431 117.602 102.03 130.848C103.391 139.075 100.79 147.002 96.6817 153.962H126.597V141.362C126.597 116.324 106.236 95.9623 81.1973 95.9623C66.8375 95.9623 54.0085 102.657 45.6766 113.113ZM51.1973 188.462L53.6872 192.798L51.2016 194.226L48.7138 192.802L51.1973 188.462ZM126.119 108.962C122.245 103.605 117.437 98.9651 111.935 95.2842C113.429 79.2503 126.863 66.7623 143.297 66.7623C160.736 66.7623 174.797 80.8238 174.797 98.2623V108.962H126.119ZM56.215 179.355C54.2007 180.717 52.4791 181.82 51.1933 182.621L10.2307 132.476C11.6437 123.922 18.1098 118.543 25.5903 117.516C32.9654 116.503 41.534 119.753 46.8042 129.45L51.1973 137.533L55.5904 129.45C60.8605 119.753 69.4292 116.503 76.8043 117.516C84.2851 118.544 90.7515 123.923 92.1641 132.477L92.1644 132.479C93.0421 137.783 91.3569 143.565 87.6102 149.641C83.8778 155.693 78.3873 161.555 72.5481 166.752C66.7385 171.923 60.7601 176.281 56.215 179.355ZM51.1933 182.621L10.2305 132.477C9.35141 137.811 11.0406 143.608 14.7852 149.684C18.5169 155.74 24.0062 161.598 29.8443 166.788C35.6529 171.952 41.6304 176.3 46.1748 179.366C48.1875 180.724 49.908 181.822 51.1933 182.621Z" fill="#6E64AC"/>
</svg>
