<svg width="69" height="96" viewBox="0 0 69 96" fill="none" xmlns="http://www.w3.org/2000/svg">
<path d="M11.2344 74.6489V63.2036H18.0078L17.9297 64.8833H13.3359V68.1333H17.7031V69.7974H13.3359V74.6489H11.2344ZM19.6719 74.6489V66.063H21.3906L21.6562 67.3755C22.2188 66.4744 23.0339 66.0239 24.1016 66.0239C24.3255 66.0239 24.5078 66.0343 24.6484 66.0552L24.6172 67.7661C24.4089 67.7349 24.1927 67.7192 23.9688 67.7192C23.2135 67.7192 22.6484 67.9198 22.2734 68.3208C21.9036 68.7218 21.7188 69.2791 21.7188 69.9927V74.6489H19.6719ZM25.9453 74.6489V66.063H27.9922V74.6489H25.9453ZM25.9453 64.813V63.063H28V64.813H25.9453ZM34.1016 74.813C32.7214 74.813 31.6458 74.4172 30.875 73.6255C30.1094 72.8286 29.7266 71.7297 29.7266 70.3286C29.7266 68.964 30.0885 67.8781 30.8125 67.0708C31.5365 66.2635 32.5234 65.8573 33.7734 65.8521C34.9557 65.8521 35.8724 66.2218 36.5234 66.9614C37.1797 67.701 37.5078 68.6828 37.5078 69.9067C37.5078 69.9953 37.5052 70.1385 37.5 70.3364C37.5 70.5343 37.5 70.6802 37.5 70.7739H31.7891C31.8099 71.576 32.0286 72.1984 32.4453 72.6411C32.8672 73.0786 33.4453 73.2974 34.1797 73.2974C35.1172 73.2974 36.0182 73.0526 36.8828 72.563L37.1719 74.0161C36.3125 74.5474 35.2891 74.813 34.1016 74.813ZM31.8281 69.4849H35.5781C35.5781 68.7869 35.4193 68.2505 35.1016 67.8755C34.7839 67.5005 34.3438 67.313 33.7812 67.313C33.2552 67.313 32.8099 67.4953 32.4453 67.8599C32.0859 68.2244 31.8802 68.7661 31.8281 69.4849ZM39.1797 74.6489V66.063H40.8281L41.0547 67.1489C41.9297 66.2843 42.901 65.8521 43.9688 65.8521C44.9688 65.8521 45.7161 66.1411 46.2109 66.7192C46.7109 67.2922 46.9609 68.1255 46.9609 69.2192V74.6489H44.9062V69.4692C44.901 68.7765 44.7891 68.2583 44.5703 67.9146C44.3516 67.5708 43.9583 67.3989 43.3906 67.3989C42.9479 67.3989 42.5417 67.5135 42.1719 67.7427C41.8073 67.9666 41.5417 68.2505 41.375 68.5942C41.276 69.0005 41.2266 69.6255 41.2266 70.4692V74.6489H39.1797ZM52.1719 74.813C51.0521 74.813 50.1719 74.4015 49.5312 73.5786C48.8906 72.7557 48.5703 71.6567 48.5703 70.2817C48.5703 68.9484 48.888 67.8781 49.5234 67.0708C50.1641 66.2583 51.0443 65.8521 52.1641 65.8521C53.3828 65.8521 54.2448 66.2843 54.75 67.1489C54.6979 66.6385 54.6719 66.1463 54.6719 65.6724V62.8989L56.7188 62.7661V74.6489H54.9453L54.7188 73.4771C54.6302 73.6177 54.5469 73.7401 54.4688 73.8442C54.3958 73.9432 54.2865 74.0604 54.1406 74.1958C53.9948 74.326 53.8359 74.4328 53.6641 74.5161C53.4974 74.5942 53.2839 74.6619 53.0234 74.7192C52.7682 74.7817 52.4844 74.813 52.1719 74.813ZM52.6562 73.2583C54.0312 73.2583 54.7292 72.3234 54.75 70.4536C54.75 69.3963 54.5729 68.6255 54.2188 68.1411C53.8646 67.6567 53.3359 67.4146 52.6328 67.4146C52.0182 67.4146 51.526 67.6619 51.1562 68.1567C50.7917 68.6463 50.6094 69.3703 50.6094 70.3286C50.6094 71.2817 50.7917 72.0083 51.1562 72.5083C51.526 73.0083 52.026 73.2583 52.6562 73.2583ZM61.5625 74.8052C60.2969 74.8052 59.2839 74.589 58.5234 74.1567L58.7344 72.6177C59.0781 72.8052 59.5156 72.9744 60.0469 73.1255C60.5781 73.2713 61.0625 73.3442 61.5 73.3442C61.9531 73.3442 62.3047 73.2609 62.5547 73.0942C62.8099 72.9224 62.9401 72.6724 62.9453 72.3442C62.9453 72.0474 62.8255 71.813 62.5859 71.6411C62.3516 71.4692 61.901 71.2557 61.2344 71.0005C61.0052 70.9172 60.8568 70.8625 60.7891 70.8364C59.9974 70.5291 59.4271 70.188 59.0781 69.813C58.7292 69.4328 58.5547 68.9198 58.5547 68.2739C58.5547 67.4927 58.8359 66.8937 59.3984 66.4771C59.9661 66.0604 60.7552 65.8521 61.7656 65.8521C62.8594 65.8521 63.8203 66.0578 64.6484 66.4692L64.1406 67.8833C63.3229 67.5031 62.5443 67.313 61.8047 67.313C61.3932 67.313 61.0703 67.3833 60.8359 67.5239C60.6068 67.6593 60.4922 67.8677 60.4922 68.1489C60.4922 68.4146 60.6042 68.6229 60.8281 68.7739C61.0521 68.9198 61.4896 69.1125 62.1406 69.3521C62.1615 69.3573 62.2292 69.3807 62.3438 69.4224C62.4583 69.464 62.5469 69.4979 62.6094 69.5239C63.3958 69.8104 63.974 70.1541 64.3438 70.5552C64.7135 70.951 64.8984 71.4692 64.8984 72.1099C64.8932 72.9692 64.6016 73.6333 64.0234 74.1021C63.4453 74.5708 62.625 74.8052 61.5625 74.8052Z" fill="#8177C3"/>
<path fill-rule="evenodd" clip-rule="evenodd" d="M46.286 20.8092C45.4019 21.8335 45.5155 23.3806 46.5399 24.2648C47.5642 25.1489 49.1112 25.0352 49.9954 24.0109C50.8795 22.9866 50.7659 21.4395 49.7416 20.5554C48.7172 19.6713 47.1702 19.7849 46.286 20.8092ZM45.2592 25.7485C43.4154 24.1571 43.2109 21.3723 44.8023 19.5286C46.3937 17.6848 49.1785 17.4802 51.0222 19.0717C52.866 20.6631 53.0705 23.4479 51.4791 25.2916C49.8877 27.1354 47.1029 27.3399 45.2592 25.7485ZM35.895 21.054C33.1347 21.054 30.897 23.2918 30.897 26.0521C30.897 28.8125 33.1347 31.0502 35.895 31.0502C38.6554 31.0502 40.8931 28.8125 40.8931 26.0521C40.8931 23.2918 38.6554 21.054 35.895 21.054ZM28.9369 26.0521C28.9369 22.2093 32.0522 19.094 35.895 19.094C39.7379 19.094 42.8531 22.2093 42.8531 26.0521C42.8531 29.895 39.7379 33.0102 35.895 33.0102C32.0522 33.0102 28.9369 29.895 28.9369 26.0521ZM35.9147 34.8132C37.3989 34.8132 38.8142 35.112 40.1036 35.6528C40.8334 31.9072 44.124 29.09 48.0868 29.09C52.5873 29.09 56.2209 32.7236 56.2209 37.2241V41.2813H45.8468C46.4423 42.6243 46.7733 44.1098 46.7733 45.6717V50.1014H37.5219C36.8956 50.8273 36.2073 51.503 35.5227 52.1123C34.2996 53.201 33.0532 54.1084 32.1163 54.742C31.6467 55.0595 31.2521 55.3102 30.9733 55.4824C30.8339 55.5685 30.7232 55.6351 30.6465 55.6807C30.6081 55.7035 30.5782 55.7211 30.5574 55.7332L30.5426 55.7418L30.533 55.7474L30.5261 55.7514L30.5233 55.753C30.5233 55.753 30.5228 55.7533 30.0348 54.9034C29.548 55.754 29.5475 55.7537 29.5475 55.7537L29.5468 55.7533L29.5447 55.7521L29.5378 55.7481L29.5134 55.734C29.4926 55.7219 29.4627 55.7044 29.4243 55.6816C29.3475 55.6361 29.2369 55.5697 29.0974 55.4839C28.8186 55.3122 28.4239 55.0622 27.9542 54.7453C27.0172 54.1132 25.7706 53.2076 24.5473 52.1201C23.3298 51.0377 22.1002 49.7444 21.2293 48.3312C20.361 46.9222 19.7929 45.2997 20.0713 43.6111L20.0714 43.6108C20.5001 41.0146 22.5059 39.3641 24.749 39.056C25.5481 38.9462 26.3723 39.0058 27.1668 39.2436C29.1432 36.5602 32.327 34.8132 35.9147 34.8132ZM28.9526 40.1347C29.3374 40.4162 29.701 40.7515 30.0348 41.1419C31.4731 39.4597 33.4648 38.801 35.3206 39.056C37.5637 39.3641 39.5695 41.0146 39.9982 43.6108C40.2649 45.2233 39.7551 46.777 38.9498 48.1413H44.8133V45.6717C44.8133 40.7641 40.8224 36.7732 35.9147 36.7732C33.1002 36.7732 30.5857 38.0854 28.9526 40.1347ZM30.0348 54.9034L30.5228 55.7533L30.0356 56.0331L29.548 55.754L30.0348 54.9034ZM44.7196 39.3213C43.9603 38.2712 43.018 37.3619 41.9397 36.6405C42.2324 33.4977 44.8657 31.05 48.0868 31.05C51.5048 31.05 54.2609 33.8061 54.2609 37.2241V39.3213H44.7196ZM31.0183 53.1184C30.6235 53.3854 30.286 53.6014 30.034 53.7585L22.0052 43.9299C22.2822 42.2534 23.5496 41.1992 25.0158 40.9977C26.4613 40.7991 28.1408 41.4362 29.1737 43.3368L30.0348 44.9212L30.8959 43.3368C31.9288 41.4362 33.6083 40.7991 35.0538 40.9977C36.5201 41.1992 37.7875 42.2535 38.0644 43.9302L38.0644 43.9305C38.2365 44.9702 37.9062 46.1035 37.1718 47.2943C36.4402 48.4806 35.3641 49.6296 34.2196 50.6482C33.0809 51.6617 31.9091 52.5159 31.0183 53.1184ZM30.034 53.7585L22.0052 43.9302C21.8329 44.9757 22.164 46.1119 22.8979 47.3029C23.6294 48.4898 24.7053 49.6379 25.8496 50.6552C26.9881 51.6673 28.1597 52.5196 29.0504 53.1205C29.4449 53.3866 29.7821 53.602 30.034 53.7585Z" fill="#8177C3"/>
</svg>
