<svg width="195" height="258" viewBox="0 0 195 258" fill="none" xmlns="http://www.w3.org/2000/svg">
<path d="M22 257.162V217.819H29.2778V233.905H47.0562V217.819H54.334V257.162H47.0562V239.653H29.2778V257.162H22Z" fill="#6E64AC"/>
<path d="M75.0127 252.382C77.3939 252.382 79.1842 251.514 80.3838 249.777C81.5833 248.04 82.1831 245.552 82.1831 242.311C82.1831 239.035 81.5833 236.537 80.3838 234.819C79.1842 233.1 77.376 232.24 74.959 232.24C72.5778 232.24 70.7785 233.109 69.561 234.845C68.3615 236.564 67.7617 239.062 67.7617 242.338C67.7617 245.561 68.3704 248.04 69.5879 249.777C70.8053 251.514 72.6136 252.382 75.0127 252.382ZM74.8247 257.726C70.4562 257.726 67.0187 256.312 64.5122 253.483C62.0057 250.654 60.7524 246.93 60.7524 242.311C60.7524 237.549 62.0057 233.798 64.5122 231.059C67.0187 228.302 70.5547 226.923 75.1201 226.923C79.5244 226.923 82.9709 228.328 85.4595 231.139C87.966 233.932 89.2192 237.656 89.2192 242.311C89.2192 247.02 87.957 250.771 85.4326 253.564C82.9082 256.339 79.3722 257.726 74.8247 257.726Z" fill="#6E64AC"/>
<path d="M94.9663 257.162V227.648H100.66L101.465 231.408C101.823 230.96 102.164 230.566 102.486 230.226C102.826 229.868 103.283 229.474 103.855 229.045C104.446 228.597 105.064 228.23 105.708 227.944C106.371 227.657 107.177 227.415 108.125 227.218C109.092 227.022 110.122 226.923 111.214 226.923C113.559 226.923 115.43 227.397 116.827 228.346C118.241 229.295 119.235 230.405 119.808 231.676C120.864 230.155 122.234 228.982 123.917 228.158C125.599 227.335 127.47 226.923 129.529 226.923C132.913 226.923 135.393 227.881 136.968 229.797C138.562 231.712 139.358 234.55 139.358 238.31V257.162H132.295V240.404C132.295 237.522 131.973 235.445 131.329 234.174C130.702 232.885 129.493 232.24 127.703 232.24C124.964 232.24 122.994 233.476 121.795 235.946C121.294 237.039 120.953 238.355 120.774 239.894V257.162H113.738V240.082C113.738 237.45 113.389 235.49 112.691 234.201C111.993 232.912 110.73 232.267 108.904 232.267C107.418 232.267 106.138 232.643 105.064 233.395C103.99 234.147 103.175 235.132 102.62 236.349C102.208 238.158 102.002 240.324 102.002 242.848V257.162H94.9663Z" fill="#6E64AC"/>
<path d="M159.957 257.726C155.212 257.726 151.515 256.366 148.865 253.644C146.233 250.905 144.917 247.127 144.917 242.311C144.917 237.62 146.162 233.888 148.65 231.112C151.139 228.337 154.532 226.941 158.829 226.923C162.893 226.923 166.044 228.194 168.282 230.737C170.538 233.279 171.666 236.654 171.666 240.861C171.666 241.165 171.657 241.658 171.639 242.338C171.639 243.018 171.639 243.52 171.639 243.842H152.007C152.079 246.599 152.831 248.739 154.263 250.26C155.713 251.764 157.701 252.516 160.225 252.516C163.448 252.516 166.545 251.675 169.517 249.992L170.511 254.987C167.557 256.813 164.039 257.726 159.957 257.726ZM152.142 239.411H165.032C165.032 237.012 164.486 235.168 163.394 233.879C162.302 232.59 160.789 231.945 158.855 231.945C157.047 231.945 155.516 232.572 154.263 233.825C153.028 235.078 152.321 236.94 152.142 239.411Z" fill="#6E64AC"/>
<path fill-rule="evenodd" clip-rule="evenodd" d="M100.168 17.0623C100.168 13.2237 103.229 10.1623 107.068 10.1623H177.868C181.707 10.1623 184.768 13.2237 184.768 17.0623V118.962C184.768 122.801 181.707 125.862 177.868 125.862H167.268V45.8623C167.268 36.5009 159.729 28.9623 150.368 28.9623H100.168V17.0623ZM90.168 28.9623V17.0623C90.168 7.70087 97.7066 0.162292 107.068 0.162292H177.868C187.229 0.162292 194.768 7.70086 194.768 17.0623V118.962C194.768 128.324 187.229 135.862 177.868 135.862H167.268V147.762C167.268 157.124 159.729 164.662 150.368 164.662H101.089C99.4667 166.237 97.823 167.759 96.1804 169.222C88.4955 176.064 80.6577 181.769 74.76 185.755C71.8053 187.752 69.3233 189.327 67.5721 190.407C66.6962 190.948 66.0022 191.365 65.5222 191.65C65.2822 191.793 65.0956 191.902 64.9665 191.977C64.9019 192.015 64.8517 192.044 64.8164 192.064L64.7746 192.089L64.758 192.098C64.7566 192.099 64.7554 192.1 62.268 187.762C59.7754 192.097 59.7742 192.096 59.7727 192.095L59.7687 192.093L59.7562 192.086L59.7145 192.061C59.6791 192.041 59.629 192.012 59.5644 191.974C59.4354 191.899 59.2488 191.789 59.0089 191.646C58.529 191.36 57.8351 190.942 56.9593 190.4C55.2083 189.318 52.7266 187.739 49.7722 185.738C43.875 181.745 36.0379 176.031 28.3538 169.183C20.6994 162.361 13.0184 154.257 7.59672 145.455C2.19045 136.678 -1.26011 126.72 0.433723 116.454C3.01852 100.553 15.2574 90.4787 28.9802 88.6081C38.6499 87.29 48.9583 90.0254 57.268 97.2826V45.8623C57.268 36.5009 64.8066 28.9623 74.168 28.9623H90.168ZM62.268 187.762L64.7554 192.1L62.2645 193.528L59.7754 192.097L62.268 187.762ZM150.368 154.662H110.349C112.766 151.715 114.998 148.651 116.94 145.496C122.349 136.71 125.797 126.739 124.101 116.45L124.1 116.443C121.462 100.556 109.235 90.4798 95.519 88.6082C85.8573 87.2897 75.5672 90.0255 67.268 97.2776V45.8623C67.268 42.0237 70.3294 38.9623 74.168 38.9623H150.368C154.207 38.9623 157.268 42.0237 157.268 45.8623V147.762C157.268 151.601 154.207 154.662 150.368 154.662ZM62.2712 181.928L62.3213 181.897C63.9713 180.879 66.3354 179.379 69.1604 177.47C74.8221 173.643 82.2779 168.211 89.5306 161.753C96.8128 155.269 103.712 147.908 108.424 140.254C113.149 132.578 115.389 125.086 114.235 118.076C112.371 106.867 103.9 99.8445 94.1669 98.5164C84.5327 97.2017 73.4336 101.497 66.6604 113.951L62.268 122.028L57.8756 113.951C51.1047 101.501 39.9827 97.2008 30.3308 98.5165C20.5806 99.8456 12.121 106.869 10.3034 118.064L10.3011 118.077C9.14766 125.059 11.3842 132.536 16.1111 140.21C20.8238 147.861 27.7241 155.226 35.0072 161.717C42.2606 168.181 49.7172 173.624 55.3794 177.458C58.2047 179.371 60.5691 180.875 62.2193 181.896L62.2712 181.928ZM78.768 67.5623H142.468V57.5623H78.768V67.5623Z" fill="#6E64AC"/>
</svg>
