<svg width="69" height="96" viewBox="0 0 69 96" fill="none" xmlns="http://www.w3.org/2000/svg">
<path d="M15.5312 75V63.5547H17.6484V68.2344H22.8203V63.5547H24.9375V75H22.8203V69.9062H17.6484V75H15.5312ZM30.9531 73.6094C31.6458 73.6094 32.1667 73.3568 32.5156 72.8516C32.8646 72.3464 33.0391 71.6224 33.0391 70.6797C33.0391 69.7266 32.8646 69 32.5156 68.5C32.1667 68 31.6406 67.75 30.9375 67.75C30.2448 67.75 29.7214 68.0026 29.3672 68.5078C29.0182 69.0078 28.8438 69.7344 28.8438 70.6875C28.8438 71.625 29.0208 72.3464 29.375 72.8516C29.7292 73.3568 30.2552 73.6094 30.9531 73.6094ZM30.8984 75.1641C29.6276 75.1641 28.6276 74.7526 27.8984 73.9297C27.1693 73.1068 26.8047 72.0234 26.8047 70.6797C26.8047 69.2943 27.1693 68.2031 27.8984 67.4062C28.6276 66.6042 29.6562 66.2031 30.9844 66.2031C32.2656 66.2031 33.2682 66.612 33.9922 67.4297C34.7214 68.2422 35.0859 69.3255 35.0859 70.6797C35.0859 72.0495 34.7188 73.1406 33.9844 73.9531C33.25 74.7604 32.2214 75.1641 30.8984 75.1641ZM36.7578 75V66.4141H38.4141L38.6484 67.5078C38.7526 67.3776 38.8516 67.263 38.9453 67.1641C39.0443 67.0599 39.1771 66.9453 39.3438 66.8203C39.5156 66.6901 39.6953 66.5833 39.8828 66.5C40.0755 66.4167 40.3099 66.3464 40.5859 66.2891C40.8672 66.2318 41.1667 66.2031 41.4844 66.2031C42.1667 66.2031 42.7109 66.3411 43.1172 66.6172C43.5286 66.8932 43.8177 67.2161 43.9844 67.5859C44.2917 67.1432 44.6901 66.8021 45.1797 66.5625C45.6693 66.3229 46.2135 66.2031 46.8125 66.2031C47.7969 66.2031 48.5182 66.4818 48.9766 67.0391C49.4401 67.5964 49.6719 68.4219 49.6719 69.5156V75H47.6172V70.125C47.6172 69.2865 47.5234 68.6823 47.3359 68.3125C47.1536 67.9375 46.8021 67.75 46.2812 67.75C45.4844 67.75 44.9115 68.1094 44.5625 68.8281C44.4167 69.1458 44.3177 69.5286 44.2656 69.9766V75H42.2188V70.0312C42.2188 69.2656 42.1172 68.6953 41.9141 68.3203C41.7109 67.9453 41.3438 67.7578 40.8125 67.7578C40.3802 67.7578 40.0078 67.8672 39.6953 68.0859C39.3828 68.3047 39.1458 68.5911 38.9844 68.9453C38.8646 69.4714 38.8047 70.1016 38.8047 70.8359V75H36.7578ZM55.6641 75.1641C54.2839 75.1641 53.2083 74.7682 52.4375 73.9766C51.6719 73.1797 51.2891 72.0807 51.2891 70.6797C51.2891 69.3151 51.651 68.2292 52.375 67.4219C53.099 66.6146 54.0859 66.2083 55.3359 66.2031C56.5182 66.2031 57.4349 66.5729 58.0859 67.3125C58.7422 68.0521 59.0703 69.0339 59.0703 70.2578C59.0703 70.3464 59.0677 70.4896 59.0625 70.6875C59.0625 70.8854 59.0625 71.0312 59.0625 71.125H53.3516C53.3724 71.9271 53.5911 72.5495 54.0078 72.9922C54.4297 73.4297 55.0078 73.6484 55.7422 73.6484C56.6797 73.6484 57.5807 73.4036 58.4453 72.9141L58.7344 74.3672C57.875 74.8984 56.8516 75.1641 55.6641 75.1641ZM53.3906 69.8359H57.1406C57.1406 69.138 56.9818 68.6016 56.6641 68.2266C56.3464 67.8516 55.9062 67.6641 55.3438 67.6641C54.8177 67.6641 54.3724 67.8464 54.0078 68.2109C53.6484 68.5755 53.4427 69.1172 53.3906 69.8359Z" fill="#8177C3"/>
<path fill-rule="evenodd" clip-rule="evenodd" d="M34.6332 23.3124C34.6332 22.5601 35.2333 21.96 35.9856 21.96H49.8626C50.615 21.96 51.215 22.5601 51.215 23.3124V43.2851C51.215 44.0375 50.615 44.6375 49.8626 44.6375H47.7849V29.7535C47.7849 27.9186 46.3073 26.441 44.4725 26.441H29.5371C27.7022 26.441 26.2246 27.9186 26.2246 29.7535V39.0358C24.5959 37.6134 22.5755 37.0772 20.6802 37.3356C17.9905 37.7022 15.5916 39.6768 15.085 42.7935C14.753 44.8056 15.4293 46.7574 16.489 48.4777C17.5516 50.2029 19.0571 51.7913 20.5574 53.1284C22.0635 54.4706 23.5996 55.5906 24.7555 56.3733C25.3345 56.7655 25.821 57.0749 26.1642 57.2871C26.3358 57.3933 26.4718 57.4753 26.5659 57.5313C26.6129 57.5593 26.6495 57.5808 26.6748 57.5956L26.7042 57.6127L26.7124 57.6174L26.7148 57.6188L26.7156 57.6193C26.7159 57.6195 26.7161 57.6196 27.2047 56.7701L26.7161 57.6196L27.204 57.9002L27.6922 57.6202L27.2047 56.7701C27.6922 57.6202 27.6924 57.6201 27.6927 57.6199L27.696 57.618L27.7042 57.6133L27.7336 57.5962C27.7589 57.5814 27.7955 57.56 27.8425 57.5321C27.9366 57.4762 28.0726 57.3944 28.2443 57.2885C28.5875 57.0767 29.074 56.768 29.6531 56.3766C30.8091 55.5953 32.3453 54.4772 33.8516 53.136C34.0667 52.9445 34.2819 52.7478 34.4959 52.5462V53.0386H44.4725C46.3073 53.0386 47.7849 51.561 47.7849 49.7261V46.5975H49.8626C51.6975 46.5975 53.175 45.12 53.175 43.2851V23.3124C53.175 21.4776 51.6975 20 49.8626 20H35.9856C34.1508 20 32.6732 21.4776 32.6732 23.3124V26.4363H34.6332V23.3124ZM33.722 37.3356C31.8282 37.0772 29.8113 37.6134 28.1847 39.0349V29.7535C28.1847 29.0011 28.7847 28.4011 29.5371 28.4011H44.4725C45.2248 28.4011 45.8249 29.0011 45.8249 29.7535V49.7261C45.8249 50.4785 45.2248 51.0785 44.4725 51.0785H35.941C36.6799 50.2636 37.3615 49.3938 37.9205 48.4857C38.9807 46.7636 39.6564 44.8093 39.3242 42.7926L39.324 42.7913C38.8069 39.6774 36.4103 37.7025 33.722 37.3356ZM27.2053 55.6265L27.2151 55.6204C27.5385 55.4209 28.0019 55.1269 28.5556 54.7527C29.6653 54.0027 31.1267 52.9379 32.5482 51.6722C33.9755 50.4013 35.3278 48.9585 36.2514 47.4582C37.1775 45.9538 37.6166 44.4854 37.3903 43.1114C37.025 40.9143 35.3646 39.538 33.4569 39.2776C31.5686 39.02 29.3932 39.8619 28.0656 42.3029L27.2047 43.8859L26.3438 42.3029C25.0166 39.8627 22.8367 39.0198 20.9449 39.2777C19.0338 39.5382 17.3757 40.9148 17.0195 43.1089L17.019 43.1116C16.793 44.48 17.2313 45.9456 18.1578 47.4498C19.0815 48.9494 20.434 50.3929 21.8615 51.6651C23.2832 52.9322 24.7447 53.9989 25.8545 54.7504C26.4083 55.1254 26.8717 55.4201 27.1951 55.6202L27.2053 55.6265ZM30.4389 33.2105H42.9243V31.2505H30.4389V33.2105Z" fill="#8177C3"/>
</svg>
