<svg width="174" height="265" viewBox="0 0 174 265" fill="none" xmlns="http://www.w3.org/2000/svg">
<path d="M4 252.162V212.819H12.5938L24.4907 241.232L36.4683 212.819H44.9546V252.162H38.2407V232.719L38.4556 221.574L37.4619 224.528L27.3911 249.477H21.1606L11.3047 224.394L10.311 221.44L10.5527 232.826V252.162H4Z" fill="#6E64AC"/>
<path d="M54.354 264.596C53.2082 264.596 51.9907 264.525 50.7017 264.382L50.3525 258.93C51.1761 259.019 52.2235 259.064 53.4946 259.064C55.1239 259.064 56.4308 258.742 57.4155 258.097C58.4002 257.453 59.2148 256.307 59.8594 254.66C59.931 254.481 60.2891 253.469 60.9336 251.625L49.0635 222.648H56.583L64.3442 244.052C64.9172 241.921 66.1973 237.965 68.1846 232.182C70.1898 226.399 71.2909 223.221 71.4878 222.648H79.0073C70.8254 244.276 66.6986 255.179 66.627 255.358C65.3558 258.67 63.7534 261.034 61.8198 262.448C59.8862 263.88 57.3976 264.596 54.354 264.596Z" fill="#6E64AC"/>
<path d="M107.662 252.565C105.639 252.565 103.956 252.332 102.613 251.867C101.288 251.383 100.241 250.623 99.4712 249.584C98.7013 248.546 98.1642 247.31 97.8599 245.878C97.5555 244.446 97.4033 242.664 97.4033 240.534V211.772L104.439 211.315V240.4C104.439 243.049 104.753 244.849 105.379 245.798C106.006 246.729 107.223 247.194 109.032 247.194C109.927 247.194 111.064 247.096 112.442 246.899L112.63 251.921C112.612 251.921 112.389 251.965 111.959 252.055C111.547 252.144 111.144 252.216 110.75 252.27C110.375 252.341 109.891 252.404 109.3 252.458C108.709 252.529 108.163 252.565 107.662 252.565Z" fill="#6E64AC"/>
<path d="M116.283 252.162V222.648H123.319V252.162H116.283ZM116.283 218.351V212.336H123.346V218.351H116.283Z" fill="#6E64AC"/>
<path d="M140.104 252.699C135.753 252.699 132.271 251.956 129.657 250.47L130.382 245.18C131.563 245.824 133.067 246.406 134.894 246.925C136.72 247.427 138.385 247.677 139.889 247.677C141.446 247.677 142.655 247.391 143.514 246.818C144.391 246.227 144.839 245.368 144.857 244.24C144.857 243.219 144.445 242.414 143.622 241.823C142.816 241.232 141.267 240.498 138.976 239.621C138.188 239.334 137.678 239.146 137.445 239.057C134.723 238.001 132.763 236.828 131.563 235.539C130.364 234.232 129.764 232.468 129.764 230.248C129.764 227.563 130.731 225.504 132.665 224.071C134.616 222.639 137.328 221.923 140.802 221.923C144.562 221.923 147.865 222.63 150.711 224.045L148.966 228.905C146.155 227.598 143.478 226.945 140.936 226.945C139.522 226.945 138.412 227.187 137.606 227.67C136.818 228.136 136.424 228.852 136.424 229.819C136.424 230.732 136.809 231.448 137.579 231.967C138.349 232.468 139.853 233.131 142.091 233.954C142.162 233.972 142.395 234.053 142.789 234.196C143.183 234.339 143.487 234.456 143.702 234.545C146.406 235.53 148.393 236.711 149.664 238.09C150.935 239.451 151.571 241.232 151.571 243.434C151.553 246.388 150.55 248.671 148.563 250.282C146.576 251.894 143.756 252.699 140.104 252.699Z" fill="#6E64AC"/>
<path d="M168.946 252.565C166.941 252.565 165.267 252.332 163.924 251.867C162.599 251.383 161.561 250.632 160.809 249.611C160.057 248.591 159.52 247.391 159.198 246.012C158.893 244.616 158.741 242.897 158.741 240.856V226.918H153.907L154.176 223.105L159.225 222.648L161.48 214.645L165.777 214.618V222.648H173.109V226.918H165.777V240.99C165.777 243.228 166.1 244.822 166.744 245.771C167.389 246.72 168.579 247.194 170.316 247.194C171.336 247.194 172.429 247.105 173.592 246.925L173.78 251.974C173.744 251.974 173.521 252.019 173.109 252.109C172.715 252.18 172.33 252.243 171.954 252.297C171.596 252.368 171.131 252.431 170.558 252.485C169.985 252.538 169.448 252.565 168.946 252.565Z" fill="#6E64AC"/>
<path fill-rule="evenodd" clip-rule="evenodd" d="M95.3011 10.7623C81.2179 10.7623 69.8011 22.179 69.8011 36.2623C69.8011 50.3456 81.2179 61.7623 95.3011 61.7623C109.384 61.7623 120.801 50.3456 120.801 36.2623C120.801 22.179 109.384 10.7623 95.3011 10.7623ZM59.8011 36.2623C59.8011 16.6562 75.695 0.762299 95.3011 0.762299C114.907 0.762299 130.801 16.6562 130.801 36.2623C130.801 55.8684 114.907 71.7623 95.3011 71.7623C75.695 71.7623 59.8011 55.8684 59.8011 36.2623ZM47.1086 109.226C40.3274 103.636 32.0424 101.535 24.2293 102.609C12.7851 104.181 2.5515 112.602 0.364101 125.848L0.363893 125.849C-1.05657 134.464 1.84179 142.742 6.2719 149.931C10.7152 157.141 16.9884 163.739 23.2002 169.262C29.4417 174.81 35.8017 179.431 40.5823 182.656C42.9785 184.272 44.9922 185.548 46.4147 186.424C47.1263 186.862 47.6909 187.201 48.0826 187.433C48.2784 187.549 48.4311 187.638 48.5374 187.7C48.5905 187.731 48.632 187.755 48.6616 187.772L48.6968 187.792L48.7076 187.798L48.7113 187.8C48.7127 187.801 48.7138 187.802 51.1973 183.462L48.7138 187.802L51.2016 189.226L53.6872 187.798L51.1973 183.462C53.6872 187.798 53.6884 187.798 53.6897 187.797L53.7041 187.788L53.7394 187.768L53.7882 187.74L53.8635 187.696C53.9697 187.634 54.1223 187.544 54.3181 187.428C54.7096 187.195 55.2741 186.855 55.9855 186.416C57.4078 185.538 59.4212 184.259 61.817 182.638C66.597 179.406 72.9561 174.776 79.1965 169.222C82.6891 166.114 86.2011 162.666 89.3962 158.962H150.801V136.362C150.801 105.801 125.963 80.9623 95.4011 80.9623C74.6839 80.9623 56.6103 92.3742 47.1086 109.226ZM96.6817 148.962H140.801V136.362C140.801 111.324 120.44 90.9623 95.4011 90.9623C82.7402 90.9623 71.2676 96.1697 63.0219 104.564C67.9141 102.542 73.1375 101.918 78.1653 102.609C89.6095 104.181 99.8431 112.602 102.03 125.848C103.391 134.075 100.79 142.002 96.6817 148.962ZM56.215 174.355C54.2007 175.717 52.4791 176.82 51.1933 177.621L10.2307 127.476C11.6437 118.922 18.1098 113.543 25.5903 112.516C32.9654 111.503 41.534 114.753 46.8042 124.45L51.1973 132.533L55.5904 124.45C60.8605 114.753 69.4292 111.503 76.8043 112.516C84.2851 113.544 90.7515 118.923 92.1641 127.477L92.1644 127.479C93.0421 132.783 91.357 138.565 87.6102 144.641C83.8778 150.693 78.3873 156.555 72.5481 161.752C66.7385 166.923 60.7601 171.281 56.215 174.355ZM51.1933 177.621L10.2305 127.477C9.35141 132.811 11.0406 138.608 14.7852 144.684C18.5169 150.74 24.0062 156.598 29.8443 161.788C35.6529 166.952 41.6304 171.3 46.1748 174.366C48.1875 175.724 49.908 176.822 51.1933 177.621Z" fill="#6E64AC"/>
</svg>
