<svg width="69" height="96" viewBox="0 0 69 96" fill="none" xmlns="http://www.w3.org/2000/svg">
<path d="M13.2344 74.8784V63.4331H15.7344L19.1953 71.6987L22.6797 63.4331H25.1484V74.8784H23.1953V69.2222L23.2578 65.98L22.9688 66.8394L20.0391 74.0972H18.2266L15.3594 66.8003L15.0703 65.9409L15.1406 69.2534V74.8784H13.2344ZM27.8828 78.4956C27.5495 78.4956 27.1953 78.4748 26.8203 78.4331L26.7188 76.8472C26.9583 76.8732 27.263 76.8862 27.6328 76.8862C28.1068 76.8862 28.487 76.7925 28.7734 76.605C29.0599 76.4175 29.2969 76.0841 29.4844 75.605C29.5052 75.5529 29.6094 75.2586 29.7969 74.7222L26.3438 66.2925H28.5312L30.7891 72.519C30.9557 71.8993 31.3281 70.7482 31.9062 69.0659C32.4896 67.3836 32.8099 66.4591 32.8672 66.2925H35.0547C32.6745 72.5841 31.474 75.756 31.4531 75.8081C31.0833 76.7716 30.6172 77.4591 30.0547 77.8706C29.4922 78.2873 28.7682 78.4956 27.8828 78.4956ZM43.3906 74.9956C42.8021 74.9956 42.3125 74.9279 41.9219 74.7925C41.5365 74.6519 41.2318 74.4305 41.0078 74.1284C40.7839 73.8263 40.6276 73.467 40.5391 73.0503C40.4505 72.6336 40.4062 72.1154 40.4062 71.4956V63.1284L42.4531 62.9956V71.4565C42.4531 72.2274 42.5443 72.7508 42.7266 73.0269C42.9089 73.2977 43.263 73.4331 43.7891 73.4331C44.0495 73.4331 44.3802 73.4045 44.7812 73.3472L44.8359 74.8081C44.8307 74.8081 44.7656 74.8211 44.6406 74.8472C44.5208 74.8732 44.4036 74.894 44.2891 74.9097C44.1797 74.9305 44.0391 74.9487 43.8672 74.9644C43.6953 74.9852 43.5365 74.9956 43.3906 74.9956ZM45.8984 74.8784V66.2925H47.9453V74.8784H45.8984ZM45.8984 65.0425V63.2925H47.9531V65.0425H45.8984ZM52.8281 75.0347C51.5625 75.0347 50.5495 74.8185 49.7891 74.3862L50 72.8472C50.3438 73.0347 50.7812 73.2039 51.3125 73.355C51.8438 73.5008 52.3281 73.5737 52.7656 73.5737C53.2188 73.5737 53.5703 73.4904 53.8203 73.3237C54.0755 73.1519 54.2057 72.9019 54.2109 72.5737C54.2109 72.2769 54.0911 72.0425 53.8516 71.8706C53.6172 71.6987 53.1667 71.4852 52.5 71.23C52.2708 71.1466 52.1224 71.092 52.0547 71.0659C51.263 70.7586 50.6927 70.4175 50.3438 70.0425C49.9948 69.6623 49.8203 69.1493 49.8203 68.5034C49.8203 67.7222 50.1016 67.1232 50.6641 66.7065C51.2318 66.2899 52.0208 66.0815 53.0312 66.0815C54.125 66.0815 55.0859 66.2873 55.9141 66.6987L55.4062 68.1128C54.5885 67.7326 53.8099 67.5425 53.0703 67.5425C52.6589 67.5425 52.3359 67.6128 52.1016 67.7534C51.8724 67.8888 51.7578 68.0972 51.7578 68.3784C51.7578 68.644 51.8698 68.8524 52.0938 69.0034C52.3177 69.1493 52.7552 69.342 53.4062 69.5815C53.4271 69.5868 53.4948 69.6102 53.6094 69.6519C53.724 69.6935 53.8125 69.7274 53.875 69.7534C54.6615 70.0399 55.2396 70.3836 55.6094 70.7847C55.9792 71.1805 56.1641 71.6987 56.1641 72.3394C56.1589 73.1987 55.8672 73.8628 55.2891 74.3315C54.7109 74.8003 53.8906 75.0347 52.8281 75.0347ZM61.2188 74.9956C60.6354 74.9956 60.1484 74.9279 59.7578 74.7925C59.3724 74.6519 59.0703 74.4331 58.8516 74.1362C58.6328 73.8394 58.4766 73.4904 58.3828 73.0894C58.2943 72.6831 58.25 72.1831 58.25 71.5894V67.5347H56.8438L56.9219 66.4253L58.3906 66.2925L59.0469 63.9644L60.2969 63.9565V66.2925H62.4297V67.5347H60.2969V71.6284C60.2969 72.2795 60.3906 72.743 60.5781 73.019C60.7656 73.2951 61.112 73.4331 61.6172 73.4331C61.9141 73.4331 62.2318 73.4071 62.5703 73.355L62.625 74.8237C62.6146 74.8237 62.5495 74.8368 62.4297 74.8628C62.3151 74.8836 62.2031 74.9019 62.0938 74.9175C61.9896 74.9383 61.8542 74.9565 61.6875 74.9722C61.5208 74.9878 61.3646 74.9956 61.2188 74.9956Z" fill="#8177C3"/>
<path fill-rule="evenodd" clip-rule="evenodd" d="M40.6792 19.96C37.9188 19.96 35.6811 22.1977 35.6811 24.9581C35.6811 27.7184 37.9188 29.9561 40.6792 29.9561C43.4396 29.9561 45.6773 27.7184 45.6773 24.9581C45.6773 22.1977 43.4396 19.96 40.6792 19.96ZM33.7211 24.9581C33.7211 21.1152 36.8364 18 40.6792 18C44.522 18 47.6373 21.1152 47.6373 24.9581C47.6373 28.8009 44.522 31.9162 40.6792 31.9162C36.8364 31.9162 33.7211 28.8009 33.7211 24.9581ZM31.2335 39.2592C29.9043 38.1635 28.2804 37.7517 26.749 37.9621C24.5059 38.2703 22.5001 39.9208 22.0714 42.517L22.0713 42.5173C21.7929 44.2059 22.361 45.8283 23.2293 47.2374C24.1002 48.6506 25.3298 49.9439 26.5473 51.0263C27.7706 52.1138 29.0172 53.0194 29.9542 53.6515C30.4239 53.9684 30.8186 54.2184 31.0974 54.39C31.2369 54.4759 31.3475 54.5423 31.4243 54.5878C31.4627 54.6105 31.4926 54.6281 31.5134 54.6402L31.5378 54.6543L31.5447 54.6583L31.5468 54.6595L31.5475 54.6599C31.5478 54.6601 31.548 54.6602 32.0348 53.8096L31.548 54.6602L32.0356 54.9392L32.5228 54.6595L32.0348 53.8096C32.5228 54.6595 32.5231 54.6593 32.5233 54.6592L32.5261 54.6576L32.533 54.6536L32.5426 54.648L32.5574 54.6394C32.5782 54.6273 32.6081 54.6097 32.6465 54.5869C32.7232 54.5413 32.8339 54.4747 32.9733 54.3885C33.2521 54.2164 33.6467 53.9657 34.1163 53.6481C35.0532 53.0145 36.2996 52.1072 37.5227 51.0185C38.2072 50.4093 38.8955 49.7336 39.5217 49.0078H51.5574V44.5781C51.5574 38.588 46.689 33.7196 40.6988 33.7196C36.6383 33.7196 33.0958 35.9563 31.2335 39.2592ZM40.9497 47.0477H49.5974V44.5781C49.5974 39.6705 45.6065 35.6796 40.6988 35.6796C38.2175 35.6796 35.9689 36.7001 34.3528 38.3452C35.3116 37.949 36.3352 37.8268 37.3206 37.9621C39.5637 38.2703 41.5695 39.9208 41.9982 42.517C42.265 44.1296 41.7551 45.6834 40.9497 47.0477ZM33.0183 52.0245C32.6235 52.2915 32.286 52.5076 32.034 52.6647L24.0052 42.8361C24.2822 41.1596 25.5496 40.1054 27.0158 39.9039C28.4613 39.7053 30.1408 40.3424 31.1737 42.243L32.0348 43.8274L32.8959 42.243C33.9288 40.3424 35.6083 39.7053 37.0538 39.9039C38.5201 40.1054 39.7875 41.1597 40.0644 42.8364L40.0644 42.8367C40.2365 43.8764 39.9062 45.0097 39.1718 46.2005C38.4402 47.3868 37.3641 48.5358 36.2196 49.5544C35.0809 50.5679 33.9091 51.4221 33.0183 52.0245ZM32.034 52.6647L24.0052 42.8364C23.8329 43.8819 24.164 45.0181 24.8979 46.2091C25.6294 47.396 26.7053 48.5441 27.8496 49.5614C28.9881 50.5735 30.1597 51.4258 31.0504 52.0267C31.4449 52.2928 31.7821 52.5081 32.034 52.6647Z" fill="#8177C3"/>
</svg>
