<svg width="69" height="96" viewBox="0 0 69 96" fill="none" xmlns="http://www.w3.org/2000/svg">
<path d="M16.8203 75.1562C15.4401 75.1562 14.2031 74.8385 13.1094 74.2031L13.625 72.5234C14.1146 72.7943 14.6458 73.013 15.2188 73.1797C15.7969 73.3464 16.3594 73.4297 16.9062 73.4297C17.5781 73.4297 18.0859 73.2865 18.4297 73C18.7734 72.7083 18.9453 72.2917 18.9453 71.75C18.9453 71.0312 18.4661 70.5339 17.5078 70.2578C17.4401 70.237 17.25 70.1823 16.9375 70.0938C16.625 70 16.3307 69.9115 16.0547 69.8281C15.7839 69.7396 15.5885 69.6719 15.4688 69.625C13.9323 69.0833 13.1641 68.0729 13.1641 66.5938C13.1641 65.5573 13.5312 64.7578 14.2656 64.1953C15.0052 63.6328 15.9844 63.3516 17.2031 63.3516C18.5833 63.3516 19.7734 63.6354 20.7734 64.2031L20.1328 65.75C19.112 65.2917 18.1641 65.0625 17.2891 65.0625C16.6589 65.0625 16.1823 65.1745 15.8594 65.3984C15.5417 65.6172 15.3724 65.9844 15.3516 66.5C15.3516 67.1354 15.6667 67.5495 16.2969 67.7422C16.4219 67.7891 16.7292 67.8906 17.2188 68.0469C17.7083 68.2031 18.026 68.3047 18.1719 68.3516C19.2188 68.6953 19.9661 69.1224 20.4141 69.6328C20.8672 70.1432 21.0938 70.8542 21.0938 71.7656C21.0938 72.8542 20.7083 73.6927 19.9375 74.2812C19.1667 74.8646 18.1276 75.1562 16.8203 75.1562ZM26.1406 75.1172C25.5573 75.1172 25.0703 75.0495 24.6797 74.9141C24.2943 74.7734 23.9922 74.5547 23.7734 74.2578C23.5547 73.9609 23.3984 73.612 23.3047 73.2109C23.2161 72.8047 23.1719 72.3047 23.1719 71.7109V67.6562H21.7656L21.8438 66.5469L23.3125 66.4141L23.9688 64.0859L25.2188 64.0781V66.4141H27.3516V67.6562H25.2188V71.75C25.2188 72.401 25.3125 72.8646 25.5 73.1406C25.6875 73.4167 26.0339 73.5547 26.5391 73.5547C26.8359 73.5547 27.1536 73.5286 27.4922 73.4766L27.5469 74.9453C27.5365 74.9453 27.4714 74.9583 27.3516 74.9844C27.237 75.0052 27.125 75.0234 27.0156 75.0391C26.9115 75.0599 26.776 75.0781 26.6094 75.0938C26.4427 75.1094 26.2865 75.1172 26.1406 75.1172ZM32.6562 73.6094C33.349 73.6094 33.8698 73.3568 34.2188 72.8516C34.5677 72.3464 34.7422 71.6224 34.7422 70.6797C34.7422 69.7266 34.5677 69 34.2188 68.5C33.8698 68 33.3438 67.75 32.6406 67.75C31.9479 67.75 31.4245 68.0026 31.0703 68.5078C30.7214 69.0078 30.5469 69.7344 30.5469 70.6875C30.5469 71.625 30.724 72.3464 31.0781 72.8516C31.4323 73.3568 31.9583 73.6094 32.6562 73.6094ZM32.6016 75.1641C31.3307 75.1641 30.3307 74.7526 29.6016 73.9297C28.8724 73.1068 28.5078 72.0234 28.5078 70.6797C28.5078 69.2943 28.8724 68.2031 29.6016 67.4062C30.3307 66.6042 31.3594 66.2031 32.6875 66.2031C33.9688 66.2031 34.9714 66.612 35.6953 67.4297C36.4245 68.2422 36.7891 69.3255 36.7891 70.6797C36.7891 72.0495 36.4219 73.1406 35.6875 73.9531C34.9531 74.7604 33.9245 75.1641 32.6016 75.1641ZM38.4688 75V66.4141H40.1875L40.4531 67.7266C41.0156 66.8255 41.8307 66.375 42.8984 66.375C43.1224 66.375 43.3047 66.3854 43.4453 66.4062L43.4141 68.1172C43.2057 68.0859 42.9896 68.0703 42.7656 68.0703C42.0104 68.0703 41.4453 68.2708 41.0703 68.6719C40.7005 69.0729 40.5156 69.6302 40.5156 70.3438V75H38.4688ZM48.5859 75.1641C47.2057 75.1641 46.1302 74.7682 45.3594 73.9766C44.5938 73.1797 44.2109 72.0807 44.2109 70.6797C44.2109 69.3151 44.5729 68.2292 45.2969 67.4219C46.0208 66.6146 47.0078 66.2083 48.2578 66.2031C49.4401 66.2031 50.3568 66.5729 51.0078 67.3125C51.6641 68.0521 51.9922 69.0339 51.9922 70.2578C51.9922 70.3464 51.9896 70.4896 51.9844 70.6875C51.9844 70.8854 51.9844 71.0312 51.9844 71.125H46.2734C46.2943 71.9271 46.513 72.5495 46.9297 72.9922C47.3516 73.4297 47.9297 73.6484 48.6641 73.6484C49.6016 73.6484 50.5026 73.4036 51.3672 72.9141L51.6562 74.3672C50.7969 74.8984 49.7734 75.1641 48.5859 75.1641ZM46.3125 69.8359H50.0625C50.0625 69.138 49.9036 68.6016 49.5859 68.2266C49.2682 67.8516 48.8281 67.6641 48.2656 67.6641C47.7396 67.6641 47.2943 67.8464 46.9297 68.2109C46.5703 68.5755 46.3646 69.1172 46.3125 69.8359Z" fill="#8177C3"/>
<path fill-rule="evenodd" clip-rule="evenodd" d="M29.9584 20.6922C30.9348 19.7157 32.5224 19.7155 33.5012 20.6943C34.2413 21.4344 34.4245 22.4927 34.0567 23.3988C33.8532 23.9003 34.0947 24.4719 34.5962 24.6754C35.0977 24.879 35.6693 24.6374 35.8728 24.1359C36.5292 22.5188 36.1984 20.6197 34.8872 19.3084C33.1441 17.5653 30.3155 17.5632 28.5724 19.3062C27.3865 20.4921 26.8279 22.4224 27.5341 24.121L27.5368 24.1275L27.5396 24.134C27.9305 25.0371 28.5846 25.7889 29.2185 26.4176C29.2639 26.4626 29.3095 26.5073 29.3553 26.5517H19.8369L17.0328 48.213L17.0327 48.2141C16.744 50.4116 18.4035 52.4241 20.6393 52.4241H29.5445C29.4662 54.4422 31.3113 55.9523 33.3134 55.9523H47.3389C49.4842 55.9523 51.3914 54.2338 51.0705 52.0426L51.0702 52.0403L49.1416 39.292H45.4084L43.7591 26.5517H32.2342C31.9972 26.3232 31.7493 26.0974 31.5097 25.8792L31.5097 25.8792L31.5012 25.8714C31.1873 25.5855 30.8848 25.3097 30.5988 25.026C30.022 24.4539 29.5826 23.9159 29.3413 23.3621C28.9856 22.4981 29.2541 21.3964 29.9584 20.6922ZM31.4257 28.5118C31.9889 29.076 32.5485 29.6416 33.0684 30.1928C33.158 30.2895 33.242 30.3788 33.3209 30.4626C33.7366 30.9042 34.0087 31.1933 34.1857 31.6061L34.1864 31.6077L34.1871 31.6093C34.5995 32.5613 34.3865 33.6501 33.6656 34.371C32.6892 35.3474 31.1016 35.3476 30.1228 34.3688C29.3773 33.6234 29.1999 32.4843 29.6134 31.5568C29.8338 31.0625 29.6117 30.4831 29.1173 30.2627C28.623 30.0423 28.0436 30.2644 27.8232 30.7588C27.0943 32.3938 27.3915 34.4094 28.7368 35.7547C30.4799 37.4978 33.3085 37.5 35.0516 35.7569C36.3403 34.4682 36.7177 32.522 35.9864 30.8319C35.6597 30.0713 35.1143 29.4998 34.6988 29.0645L34.6987 29.0643C34.6295 28.9918 34.5639 28.923 34.5035 28.8578L34.5005 28.8546L34.4974 28.8514C34.3911 28.7386 34.2832 28.6253 34.1742 28.5118H42.0365L43.432 39.292H31.5107L29.8206 50.464H20.6393C19.6507 50.464 18.8328 49.5566 18.9761 48.4688L18.9763 48.4667L21.5596 28.5118H31.4257ZM31.5198 52.3352L33.1965 41.2521H35.2279V42.4348C35.2279 45.2613 37.5225 47.5241 40.324 47.5241C43.1285 47.5241 45.4201 45.2386 45.4201 42.4348V41.2521H47.4558L49.1312 52.3265L49.1315 52.3285C49.2401 53.0804 48.5617 53.9922 47.3389 53.9922H33.3134C32.0747 53.9922 31.4024 53.0702 31.5192 52.3391L31.5198 52.3352ZM37.188 42.4348V41.2521H43.46V42.4348C43.46 44.1531 42.0491 45.5641 40.324 45.5641C38.5959 45.5641 37.188 44.1697 37.188 42.4348Z" fill="#8177C3"/>
</svg>
