<svg width="175" height="258" viewBox="0 0 175 258" fill="none" xmlns="http://www.w3.org/2000/svg">
<path d="M19.7563 257.699C15.0119 257.699 10.7598 256.607 7 254.423L8.77246 248.649C10.4554 249.58 12.2816 250.332 14.251 250.905C16.2383 251.478 18.1719 251.764 20.0518 251.764C22.3613 251.764 24.1069 251.272 25.2886 250.287C26.4702 249.285 27.061 247.852 27.061 245.99C27.061 243.52 25.4139 241.81 22.1196 240.861C21.8869 240.789 21.2334 240.601 20.1592 240.297C19.085 239.975 18.0734 239.67 17.1245 239.384C16.1935 239.08 15.5221 238.847 15.1104 238.686C9.82878 236.824 7.18799 233.35 7.18799 228.266C7.18799 224.703 8.4502 221.955 10.9746 220.021C13.5169 218.088 16.8828 217.121 21.0723 217.121C25.8167 217.121 29.9077 218.097 33.3452 220.048L31.1431 225.365C27.634 223.79 24.3755 223.002 21.3677 223.002C19.2013 223.002 17.5632 223.387 16.4531 224.157C15.361 224.909 14.7791 226.171 14.7075 227.944C14.7075 230.128 15.7907 231.551 17.957 232.214C18.3867 232.375 19.443 232.724 21.126 233.261C22.8089 233.798 23.901 234.147 24.4023 234.308C28.001 235.49 30.5702 236.958 32.1099 238.713C33.6675 240.467 34.4463 242.911 34.4463 246.044C34.4463 249.786 33.1214 252.668 30.4717 254.692C27.8219 256.697 24.2502 257.699 19.7563 257.699Z" fill="#6E64AC"/>
<path d="M51.7949 257.565C49.7897 257.565 48.1157 257.332 46.7729 256.867C45.4481 256.383 44.4097 255.632 43.6577 254.611C42.9058 253.591 42.3687 252.391 42.0464 251.012C41.742 249.616 41.5898 247.897 41.5898 245.856V231.918H36.7559L37.0244 228.105L42.0732 227.648L44.3291 219.645L48.626 219.618V227.648H55.9575V231.918H48.626V245.99C48.626 248.228 48.9482 249.822 49.5928 250.771C50.2373 251.72 51.4279 252.194 53.1646 252.194C54.1851 252.194 55.2772 252.105 56.4409 251.925L56.6289 256.974C56.5931 256.974 56.3693 257.019 55.9575 257.109C55.5636 257.18 55.1787 257.243 54.8027 257.297C54.4447 257.368 53.9792 257.431 53.4062 257.485C52.8333 257.538 52.2962 257.565 51.7949 257.565Z" fill="#6E64AC"/>
<path d="M74.1924 252.382C76.5736 252.382 78.3639 251.514 79.5635 249.777C80.763 248.04 81.3628 245.552 81.3628 242.311C81.3628 239.035 80.763 236.537 79.5635 234.819C78.3639 233.1 76.5557 232.24 74.1387 232.24C71.7575 232.24 69.9582 233.109 68.7407 234.845C67.5412 236.564 66.9414 239.062 66.9414 242.338C66.9414 245.561 67.5501 248.04 68.7676 249.777C69.985 251.514 71.7933 252.382 74.1924 252.382ZM74.0044 257.726C69.6359 257.726 66.1984 256.312 63.6919 253.483C61.1854 250.654 59.9321 246.93 59.9321 242.311C59.9321 237.549 61.1854 233.798 63.6919 231.059C66.1984 228.302 69.7344 226.923 74.2998 226.923C78.7041 226.923 82.1506 228.328 84.6392 231.139C87.1457 233.932 88.3989 237.656 88.3989 242.311C88.3989 247.02 87.1367 250.771 84.6123 253.564C82.0879 256.339 78.5519 257.726 74.0044 257.726Z" fill="#6E64AC"/>
<path d="M94.1729 257.162V227.648H100.081L100.994 232.16C102.928 229.063 105.73 227.514 109.4 227.514C110.17 227.514 110.796 227.55 111.28 227.621L111.172 233.503C110.456 233.395 109.713 233.341 108.943 233.341C106.347 233.341 104.405 234.031 103.116 235.409C101.845 236.788 101.209 238.704 101.209 241.156V257.162H94.1729Z" fill="#6E64AC"/>
<path d="M128.951 257.726C124.206 257.726 120.509 256.366 117.859 253.644C115.228 250.905 113.912 247.127 113.912 242.311C113.912 237.62 115.156 233.888 117.645 231.112C120.133 228.337 123.526 226.941 127.823 226.923C131.887 226.923 135.038 228.194 137.276 230.737C139.532 233.279 140.66 236.654 140.66 240.861C140.66 241.165 140.651 241.658 140.633 242.338C140.633 243.018 140.633 243.52 140.633 243.842H121.001C121.073 246.599 121.825 248.739 123.257 250.26C124.708 251.764 126.695 252.516 129.219 252.516C132.442 252.516 135.539 251.675 138.511 249.992L139.505 254.987C136.551 256.813 133.033 257.726 128.951 257.726ZM121.136 239.411H134.026C134.026 237.012 133.48 235.168 132.388 233.879C131.296 232.59 129.783 231.945 127.85 231.945C126.041 231.945 124.511 232.572 123.257 233.825C122.022 235.078 121.315 236.94 121.136 239.411Z" fill="#6E64AC"/>
<path d="M155.833 257.699C151.482 257.699 148 256.956 145.386 255.47L146.111 250.18C147.293 250.824 148.797 251.406 150.623 251.925C152.449 252.427 154.114 252.677 155.618 252.677C157.176 252.677 158.384 252.391 159.244 251.818C160.121 251.227 160.569 250.368 160.586 249.24C160.586 248.219 160.175 247.414 159.351 246.823C158.545 246.232 156.997 245.498 154.705 244.621C153.917 244.334 153.407 244.146 153.174 244.057C150.453 243.001 148.493 241.828 147.293 240.539C146.093 239.232 145.494 237.468 145.494 235.248C145.494 232.563 146.46 230.504 148.394 229.071C150.346 227.639 153.058 226.923 156.531 226.923C160.291 226.923 163.594 227.63 166.441 229.045L164.695 233.905C161.884 232.598 159.208 231.945 156.666 231.945C155.251 231.945 154.141 232.187 153.335 232.67C152.548 233.136 152.154 233.852 152.154 234.819C152.154 235.732 152.539 236.448 153.309 236.967C154.078 237.468 155.582 238.131 157.82 238.954C157.892 238.972 158.125 239.053 158.519 239.196C158.912 239.339 159.217 239.456 159.432 239.545C162.135 240.53 164.122 241.711 165.394 243.09C166.665 244.451 167.3 246.232 167.3 248.434C167.282 251.388 166.28 253.671 164.292 255.282C162.305 256.894 159.485 257.699 155.833 257.699Z" fill="#6E64AC"/>
<path fill-rule="evenodd" clip-rule="evenodd" d="M66.1127 14.2656C71.0945 9.28376 79.1945 9.28284 84.1884 14.2768C87.9641 18.0525 88.8987 23.4521 87.0224 28.0747C85.9839 30.6334 87.2163 33.5495 89.7749 34.5881C92.3336 35.6266 95.2498 34.3942 96.2883 31.8355C99.6369 23.5854 97.9494 13.8957 91.2595 7.20571C82.3662 -1.68755 67.9346 -1.69847 59.0416 7.19454C52.9913 13.2449 50.1413 23.0935 53.7441 31.7592L53.7579 31.7926L53.7723 31.8257C55.7664 36.4333 59.104 40.269 62.3381 43.4769C62.57 43.7068 62.8031 43.9354 63.0371 44.1623H14.474L0.16738 154.678L0.16663 154.683C-1.30613 165.895 7.16066 176.162 18.5675 176.162H64.001C63.6021 186.459 73.0155 194.162 83.2302 194.162H154.788C165.733 194.162 175.463 185.395 173.827 174.215L173.825 174.204L163.985 109.162H144.939L136.524 44.1623H77.7252C76.5155 42.996 75.2501 41.8433 74.0277 40.7297L73.9842 40.6901C72.383 39.2314 70.8395 37.8244 69.3803 36.377C66.4374 33.458 64.1956 30.7131 62.9644 27.8878C61.1498 23.4797 62.5197 17.8586 66.1127 14.2656ZM73.6003 54.1623C76.4732 57.0408 79.3281 59.9259 81.98 62.7378C82.4368 63.231 82.8656 63.6865 83.268 64.114L83.2684 64.1144C85.389 66.3674 86.7773 67.8423 87.6806 69.9483L87.6842 69.9566L87.6877 69.9648C89.7917 74.8216 88.7052 80.3767 85.0272 84.0546C80.0454 89.0365 71.9454 89.0374 66.9515 84.0435C63.1483 80.2403 62.2432 74.429 64.3527 69.697C65.4771 67.1749 64.344 64.2188 61.8218 63.0944C59.2997 61.97 56.3436 63.1031 55.2192 65.6253C51.5005 73.967 53.0166 84.2507 59.8804 91.1146C68.7737 100.008 83.2053 100.019 92.0983 91.1257C98.6734 84.5506 100.599 74.6211 96.8675 65.9986C95.2009 62.1177 92.418 59.2018 90.2986 56.9811L90.2986 56.981C89.9451 56.6107 89.6101 56.2597 89.3019 55.9267L89.2865 55.9102L89.271 55.8937C88.7287 55.3186 88.1787 54.7411 87.6231 54.1623H127.736L134.855 109.162H74.0326L65.4096 166.162H18.5675C13.5238 166.162 9.35116 161.533 10.0818 155.983L10.0832 155.972L23.2629 54.1623H73.6003ZM74.0793 175.708L82.6336 119.162H92.9992V125.197C92.9992 139.618 104.706 151.162 118.999 151.162C133.308 151.162 144.999 139.502 144.999 125.197V119.162H155.384L163.932 175.664L163.933 175.674C164.488 179.51 161.027 184.162 154.788 184.162H83.2302C76.9101 184.162 73.4803 179.458 74.076 175.728L74.0793 175.708ZM102.999 125.197V119.162H134.999V125.197C134.999 133.964 127.801 141.162 118.999 141.162C110.182 141.162 102.999 134.048 102.999 125.197Z" fill="#6E64AC"/>
</svg>
